<mxfile host="app.diagrams.net" modified="2021-09-13T07:01:50.943Z" agent="5.0 (Windows NT 10.0; Win64; x64) AppleWebKit/537.36 (KHTML, like Gecko) Chrome/93.0.4577.63 Safari/537.36" etag="kVLZ0xGkLi6SCa0H5IU7" version="15.0.6" type="github">
  <diagram id="RWWzlrLUqUZTd2N9Jcue" name="Page-1">
    <mxGraphModel dx="865" dy="449" grid="1" gridSize="10" guides="1" tooltips="1" connect="1" arrows="1" fold="1" page="1" pageScale="1" pageWidth="192000" pageHeight="108000" math="0" shadow="0">
      <root>
        <mxCell id="0" />
        <mxCell id="1" parent="0" />
        <mxCell id="69hNL4aNgv2TUrD7TsJn-2" value="" style="ellipse;html=1;shape=startState;fillColor=#000000;strokeColor=#ff0000;" vertex="1" parent="1">
          <mxGeometry x="540" y="20" width="30" height="30" as="geometry" />
        </mxCell>
        <mxCell id="69hNL4aNgv2TUrD7TsJn-3" value="" style="edgeStyle=orthogonalEdgeStyle;html=1;verticalAlign=bottom;endArrow=open;endSize=8;strokeColor=#ff0000;" edge="1" source="69hNL4aNgv2TUrD7TsJn-2" parent="1">
          <mxGeometry relative="1" as="geometry">
            <mxPoint x="555" y="310" as="targetPoint" />
          </mxGeometry>
        </mxCell>
        <mxCell id="69hNL4aNgv2TUrD7TsJn-4" value="Скачиваем домашку" style="text;html=1;strokeColor=none;fillColor=none;align=center;verticalAlign=middle;whiteSpace=wrap;rounded=0;" vertex="1" parent="1">
          <mxGeometry x="560" y="260" width="110" height="20" as="geometry" />
        </mxCell>
        <mxCell id="69hNL4aNgv2TUrD7TsJn-32" style="edgeStyle=orthogonalEdgeStyle;rounded=0;orthogonalLoop=1;jettySize=auto;html=1;exitX=1;exitY=0.5;exitDx=0;exitDy=0;" edge="1" parent="1" source="69hNL4aNgv2TUrD7TsJn-5" target="69hNL4aNgv2TUrD7TsJn-31">
          <mxGeometry relative="1" as="geometry" />
        </mxCell>
        <mxCell id="69hNL4aNgv2TUrD7TsJn-8" value="Перейти в раздел &quot;Домашнее задание&quot;" style="text;html=1;strokeColor=none;fillColor=none;align=center;verticalAlign=middle;whiteSpace=wrap;rounded=0;" vertex="1" parent="1">
          <mxGeometry x="560" y="50" width="120" height="20" as="geometry" />
        </mxCell>
        <mxCell id="69hNL4aNgv2TUrD7TsJn-10" value="Найти нужную домаашку" style="text;html=1;strokeColor=none;fillColor=none;align=center;verticalAlign=middle;whiteSpace=wrap;rounded=0;" vertex="1" parent="1">
          <mxGeometry x="560" y="150" width="120" height="20" as="geometry" />
        </mxCell>
        <mxCell id="69hNL4aNgv2TUrD7TsJn-11" value="" style="edgeStyle=orthogonalEdgeStyle;html=1;verticalAlign=bottom;endArrow=open;endSize=8;strokeColor=#ff0000;entryX=0.5;entryY=0;entryDx=0;entryDy=0;" edge="1" parent="1" source="69hNL4aNgv2TUrD7TsJn-2" target="69hNL4aNgv2TUrD7TsJn-64">
          <mxGeometry relative="1" as="geometry">
            <mxPoint x="555" y="760" as="targetPoint" />
            <mxPoint x="555" y="50" as="sourcePoint" />
            <Array as="points" />
          </mxGeometry>
        </mxCell>
        <mxCell id="69hNL4aNgv2TUrD7TsJn-14" value="" style="endArrow=classic;html=1;" edge="1" parent="1">
          <mxGeometry width="50" height="50" relative="1" as="geometry">
            <mxPoint x="556" y="190" as="sourcePoint" />
            <mxPoint x="680" y="190" as="targetPoint" />
          </mxGeometry>
        </mxCell>
        <mxCell id="69hNL4aNgv2TUrD7TsJn-17" value="Домашка найдена" style="rounded=0;whiteSpace=wrap;html=1;" vertex="1" parent="1">
          <mxGeometry x="512.5" y="200" width="85" height="40" as="geometry" />
        </mxCell>
        <mxCell id="69hNL4aNgv2TUrD7TsJn-21" style="edgeStyle=orthogonalEdgeStyle;rounded=0;orthogonalLoop=1;jettySize=auto;html=1;exitX=1;exitY=0.5;exitDx=0;exitDy=0;" edge="1" parent="1" source="69hNL4aNgv2TUrD7TsJn-18">
          <mxGeometry relative="1" as="geometry">
            <mxPoint x="1220" y="190" as="targetPoint" />
          </mxGeometry>
        </mxCell>
        <mxCell id="69hNL4aNgv2TUrD7TsJn-18" value="Домашка не найдена" style="rounded=0;whiteSpace=wrap;html=1;" vertex="1" parent="1">
          <mxGeometry x="680" y="170" width="85" height="40" as="geometry" />
        </mxCell>
        <mxCell id="69hNL4aNgv2TUrD7TsJn-22" value="Забить и радоваться" style="text;html=1;strokeColor=none;fillColor=none;align=center;verticalAlign=middle;whiteSpace=wrap;rounded=0;" vertex="1" parent="1">
          <mxGeometry x="780" y="160" width="120" height="20" as="geometry" />
        </mxCell>
        <mxCell id="69hNL4aNgv2TUrD7TsJn-27" value="Открываем домашку" style="text;html=1;strokeColor=none;fillColor=none;align=center;verticalAlign=middle;whiteSpace=wrap;rounded=0;" vertex="1" parent="1">
          <mxGeometry x="560" y="360" width="110" height="20" as="geometry" />
        </mxCell>
        <mxCell id="69hNL4aNgv2TUrD7TsJn-28" value="Домашка открыта" style="rounded=0;whiteSpace=wrap;html=1;" vertex="1" parent="1">
          <mxGeometry x="512.5" y="400" width="85" height="40" as="geometry" />
        </mxCell>
        <mxCell id="69hNL4aNgv2TUrD7TsJn-29" value="Делаем домашку" style="text;html=1;strokeColor=none;fillColor=none;align=center;verticalAlign=middle;whiteSpace=wrap;rounded=0;" vertex="1" parent="1">
          <mxGeometry x="565" y="460" width="110" height="20" as="geometry" />
        </mxCell>
        <mxCell id="69hNL4aNgv2TUrD7TsJn-42" style="edgeStyle=orthogonalEdgeStyle;rounded=0;orthogonalLoop=1;jettySize=auto;html=1;exitX=1;exitY=0.5;exitDx=0;exitDy=0;" edge="1" parent="1" source="69hNL4aNgv2TUrD7TsJn-30" target="69hNL4aNgv2TUrD7TsJn-41">
          <mxGeometry relative="1" as="geometry" />
        </mxCell>
        <mxCell id="69hNL4aNgv2TUrD7TsJn-30" value="Домашка сделана" style="rounded=0;whiteSpace=wrap;html=1;" vertex="1" parent="1">
          <mxGeometry x="512.5" y="500" width="85" height="40" as="geometry" />
        </mxCell>
        <mxCell id="69hNL4aNgv2TUrD7TsJn-34" style="edgeStyle=orthogonalEdgeStyle;rounded=0;orthogonalLoop=1;jettySize=auto;html=1;" edge="1" parent="1">
          <mxGeometry relative="1" as="geometry">
            <mxPoint x="769" y="320" as="sourcePoint" />
            <mxPoint x="554" y="250" as="targetPoint" />
            <Array as="points">
              <mxPoint x="789" y="320" />
              <mxPoint x="789" y="250" />
            </Array>
          </mxGeometry>
        </mxCell>
        <mxCell id="69hNL4aNgv2TUrD7TsJn-31" value="Домашка не скачана" style="rounded=0;whiteSpace=wrap;html=1;" vertex="1" parent="1">
          <mxGeometry x="680" y="300" width="85" height="40" as="geometry" />
        </mxCell>
        <mxCell id="69hNL4aNgv2TUrD7TsJn-36" value="Повторяем попытку" style="text;html=1;strokeColor=none;fillColor=none;align=center;verticalAlign=middle;whiteSpace=wrap;rounded=0;" vertex="1" parent="1">
          <mxGeometry x="790" y="270" width="110" height="20" as="geometry" />
        </mxCell>
        <mxCell id="69hNL4aNgv2TUrD7TsJn-5" value="Домашка скачана" style="rounded=0;whiteSpace=wrap;html=1;" vertex="1" parent="1">
          <mxGeometry x="512.5" y="300" width="85" height="40" as="geometry" />
        </mxCell>
        <mxCell id="69hNL4aNgv2TUrD7TsJn-9" value="Страница ДЗ загружена" style="rounded=0;whiteSpace=wrap;html=1;" vertex="1" parent="1">
          <mxGeometry x="512.5" y="80" width="85" height="40" as="geometry" />
        </mxCell>
        <mxCell id="69hNL4aNgv2TUrD7TsJn-37" style="edgeStyle=orthogonalEdgeStyle;rounded=0;orthogonalLoop=1;jettySize=auto;html=1;exitX=1;exitY=0.5;exitDx=0;exitDy=0;" edge="1" parent="1" target="69hNL4aNgv2TUrD7TsJn-39">
          <mxGeometry relative="1" as="geometry">
            <mxPoint x="597.5" y="420" as="sourcePoint" />
          </mxGeometry>
        </mxCell>
        <mxCell id="69hNL4aNgv2TUrD7TsJn-38" style="edgeStyle=orthogonalEdgeStyle;rounded=0;orthogonalLoop=1;jettySize=auto;html=1;" edge="1" parent="1">
          <mxGeometry relative="1" as="geometry">
            <mxPoint x="769" y="420" as="sourcePoint" />
            <mxPoint x="554" y="350" as="targetPoint" />
            <Array as="points">
              <mxPoint x="789" y="420" />
              <mxPoint x="789" y="350" />
            </Array>
          </mxGeometry>
        </mxCell>
        <mxCell id="69hNL4aNgv2TUrD7TsJn-39" value="Домашка не открыта" style="rounded=0;whiteSpace=wrap;html=1;" vertex="1" parent="1">
          <mxGeometry x="680" y="400" width="85" height="40" as="geometry" />
        </mxCell>
        <mxCell id="69hNL4aNgv2TUrD7TsJn-40" value="Повторяем попытку" style="text;html=1;strokeColor=none;fillColor=none;align=center;verticalAlign=middle;whiteSpace=wrap;rounded=0;" vertex="1" parent="1">
          <mxGeometry x="790" y="370" width="110" height="20" as="geometry" />
        </mxCell>
        <mxCell id="69hNL4aNgv2TUrD7TsJn-44" style="edgeStyle=orthogonalEdgeStyle;rounded=0;orthogonalLoop=1;jettySize=auto;html=1;exitX=1;exitY=0.5;exitDx=0;exitDy=0;" edge="1" parent="1" source="69hNL4aNgv2TUrD7TsJn-41">
          <mxGeometry relative="1" as="geometry">
            <mxPoint x="1220" y="520" as="targetPoint" />
          </mxGeometry>
        </mxCell>
        <mxCell id="69hNL4aNgv2TUrD7TsJn-41" value="Домашка не сделана" style="rounded=0;whiteSpace=wrap;html=1;" vertex="1" parent="1">
          <mxGeometry x="680" y="500" width="85" height="40" as="geometry" />
        </mxCell>
        <mxCell id="69hNL4aNgv2TUrD7TsJn-45" value="Плачем" style="text;html=1;strokeColor=none;fillColor=none;align=center;verticalAlign=middle;whiteSpace=wrap;rounded=0;" vertex="1" parent="1">
          <mxGeometry x="790" y="490" width="110" height="20" as="geometry" />
        </mxCell>
        <mxCell id="69hNL4aNgv2TUrD7TsJn-46" value="Загружаем домашку" style="text;html=1;strokeColor=none;fillColor=none;align=center;verticalAlign=middle;whiteSpace=wrap;rounded=0;" vertex="1" parent="1">
          <mxGeometry x="560" y="570" width="110" height="20" as="geometry" />
        </mxCell>
        <mxCell id="69hNL4aNgv2TUrD7TsJn-50" style="edgeStyle=orthogonalEdgeStyle;rounded=0;orthogonalLoop=1;jettySize=auto;html=1;exitX=1;exitY=0.5;exitDx=0;exitDy=0;" edge="1" parent="1" source="69hNL4aNgv2TUrD7TsJn-48" target="69hNL4aNgv2TUrD7TsJn-49">
          <mxGeometry relative="1" as="geometry" />
        </mxCell>
        <mxCell id="69hNL4aNgv2TUrD7TsJn-48" value="Домашка загружена" style="rounded=0;whiteSpace=wrap;html=1;" vertex="1" parent="1">
          <mxGeometry x="512.5" y="620" width="85" height="40" as="geometry" />
        </mxCell>
        <mxCell id="69hNL4aNgv2TUrD7TsJn-52" style="edgeStyle=orthogonalEdgeStyle;rounded=0;orthogonalLoop=1;jettySize=auto;html=1;exitX=1;exitY=0.5;exitDx=0;exitDy=0;" edge="1" parent="1" source="69hNL4aNgv2TUrD7TsJn-49" target="69hNL4aNgv2TUrD7TsJn-51">
          <mxGeometry relative="1" as="geometry" />
        </mxCell>
        <mxCell id="69hNL4aNgv2TUrD7TsJn-49" value="Домашка не загружена" style="rounded=0;whiteSpace=wrap;html=1;" vertex="1" parent="1">
          <mxGeometry x="680" y="620" width="85" height="40" as="geometry" />
        </mxCell>
        <mxCell id="69hNL4aNgv2TUrD7TsJn-55" style="edgeStyle=orthogonalEdgeStyle;rounded=0;orthogonalLoop=1;jettySize=auto;html=1;exitX=1;exitY=0.5;exitDx=0;exitDy=0;" edge="1" parent="1" source="69hNL4aNgv2TUrD7TsJn-51" target="69hNL4aNgv2TUrD7TsJn-54">
          <mxGeometry relative="1" as="geometry" />
        </mxCell>
        <mxCell id="69hNL4aNgv2TUrD7TsJn-51" value="Проблема определена" style="rounded=0;whiteSpace=wrap;html=1;" vertex="1" parent="1">
          <mxGeometry x="850" y="620" width="85" height="40" as="geometry" />
        </mxCell>
        <mxCell id="69hNL4aNgv2TUrD7TsJn-53" value="Определяем проблему" style="text;html=1;strokeColor=none;fillColor=none;align=center;verticalAlign=middle;whiteSpace=wrap;rounded=0;" vertex="1" parent="1">
          <mxGeometry x="750" y="600" width="110" height="20" as="geometry" />
        </mxCell>
        <mxCell id="69hNL4aNgv2TUrD7TsJn-58" style="edgeStyle=orthogonalEdgeStyle;rounded=0;orthogonalLoop=1;jettySize=auto;html=1;exitX=1;exitY=0.5;exitDx=0;exitDy=0;" edge="1" parent="1" source="69hNL4aNgv2TUrD7TsJn-54">
          <mxGeometry relative="1" as="geometry">
            <mxPoint x="560" y="560" as="targetPoint" />
            <Array as="points">
              <mxPoint x="1135" y="640" />
              <mxPoint x="1135" y="560" />
            </Array>
          </mxGeometry>
        </mxCell>
        <mxCell id="69hNL4aNgv2TUrD7TsJn-54" value="Проблема устранена" style="rounded=0;whiteSpace=wrap;html=1;" vertex="1" parent="1">
          <mxGeometry x="1030" y="620" width="85" height="40" as="geometry" />
        </mxCell>
        <mxCell id="69hNL4aNgv2TUrD7TsJn-56" value="Устраняем проблему" style="text;html=1;strokeColor=none;fillColor=none;align=center;verticalAlign=middle;whiteSpace=wrap;rounded=0;" vertex="1" parent="1">
          <mxGeometry x="920" y="600" width="110" height="20" as="geometry" />
        </mxCell>
        <mxCell id="69hNL4aNgv2TUrD7TsJn-60" value="Повторяем попытку" style="text;html=1;strokeColor=none;fillColor=none;align=center;verticalAlign=middle;whiteSpace=wrap;rounded=0;" vertex="1" parent="1">
          <mxGeometry x="1130" y="590" width="110" height="20" as="geometry" />
        </mxCell>
        <mxCell id="69hNL4aNgv2TUrD7TsJn-63" value="Радуемся" style="text;html=1;strokeColor=none;fillColor=none;align=center;verticalAlign=middle;whiteSpace=wrap;rounded=0;" vertex="1" parent="1">
          <mxGeometry x="570" y="700" width="60" height="20" as="geometry" />
        </mxCell>
        <mxCell id="69hNL4aNgv2TUrD7TsJn-64" value="" style="ellipse;html=1;shape=endState;fillColor=#000000;strokeColor=#ff0000;" vertex="1" parent="1">
          <mxGeometry x="540" y="770" width="30" height="30" as="geometry" />
        </mxCell>
        <mxCell id="69hNL4aNgv2TUrD7TsJn-65" value="" style="endArrow=none;html=1;" edge="1" parent="1">
          <mxGeometry width="50" height="50" relative="1" as="geometry">
            <mxPoint x="1220" y="780" as="sourcePoint" />
            <mxPoint x="1220" y="190" as="targetPoint" />
          </mxGeometry>
        </mxCell>
        <mxCell id="69hNL4aNgv2TUrD7TsJn-66" value="" style="endArrow=classic;html=1;entryX=1.078;entryY=0.289;entryDx=0;entryDy=0;entryPerimeter=0;" edge="1" parent="1" target="69hNL4aNgv2TUrD7TsJn-64">
          <mxGeometry width="50" height="50" relative="1" as="geometry">
            <mxPoint x="1220" y="780" as="sourcePoint" />
            <mxPoint x="580" y="780" as="targetPoint" />
          </mxGeometry>
        </mxCell>
      </root>
    </mxGraphModel>
  </diagram>
</mxfile>
